<svg version="1.1" xmlns="http://www.w3.org/2000/svg" xmlns:xlink="http://www.w3.org/1999/xlink" width="124.18142" height="116.36957" viewBox="0,0,124.18142,116.36957"><g transform="translate(-182.58221,-177.0135)"><g data-paper-data="{&quot;isPaintingLayer&quot;:true}" fill-rule="nonzero" stroke-linejoin="miter" stroke-miterlimit="10" stroke-dasharray="" stroke-dashoffset="0" style="mix-blend-mode: normal"><path d="M203.78937,193.86814l65.3497,1.1416l-5.1318,97.6352l-48.9853,-2.944z" fill="#00cccc" stroke="#000000" stroke-width="1.32374" stroke-linecap="round"/><path d="M269.24467,193.76184l16.3118,-11.9029l-8.1411,99.2935l-12.9874,11.132l4.8315,-97.3508z" fill="#009999" stroke="#000000" stroke-width="0.96714" stroke-linecap="round"/><g stroke="#000000" stroke-linecap="butt"><path d="M239.25227,246.83424c4.9484,0 9.4336,2.0094 12.6825,5.2583c3.2489,3.2489 5.2583,7.7341 5.2583,12.6825c0,4.9484 -2.0094,9.4336 -5.2583,12.6825c-3.2489,3.2489 -7.7341,5.2582 -12.6825,5.2582c-4.9484,0 -9.4336,-2.0093 -12.6825,-5.2582c-3.2489,-3.2489 -5.2583,-7.7341 -5.2583,-12.6825c0,-4.9484 2.0094,-9.4336 5.2583,-12.6825c3.2489,-3.2489 7.7341,-5.2583 12.6825,-5.2583z" fill="#666666" stroke-width="3.26196"/><path d="M239.15987,256.40744c2.2173,0 4.2271,0.9003 5.6828,2.3561c1.4558,1.4558 2.3562,3.4655 2.3562,5.6828c0,2.2173 -0.9004,4.2271 -2.3562,5.6829c-1.4557,1.4558 -3.4655,2.3561 -5.6828,2.3561c-2.2173,0 -4.227,-0.9003 -5.6828,-2.3561c-1.4558,-1.4558 -2.3562,-3.4656 -2.3562,-5.6829c0,-2.2173 0.9004,-4.227 2.3562,-5.6828c1.4558,-1.4558 3.4655,-2.3561 5.6828,-2.3561z" fill="#dddfea" stroke-width="1.46164"/></g><path d="M225.09287,181.37654l60.1818,-0.0032l-16.5257,13.25l-64.4973,-0.9998z" fill="#00ffff" stroke="#000000" stroke-width="0.9505" stroke-linecap="round"/><g stroke="#000000" stroke-linecap="butt"><path d="M238.15227,202.43424c4.9484,0 9.4336,2.0094 12.6825,5.2583c3.2489,3.2489 5.2583,7.7341 5.2583,12.6825c0,4.9484 -2.0094,9.4336 -5.2583,12.6825c-3.2489,3.2489 -7.7341,5.2582 -12.6825,5.2582c-4.9484,0 -9.4336,-2.0093 -12.6825,-5.2582c-3.2489,-3.2489 -5.2583,-7.7341 -5.2583,-12.6825c0,-4.9484 2.0094,-9.4336 5.2583,-12.6825c3.2489,-3.2489 7.7341,-5.2583 12.6825,-5.2583z" fill="#666666" stroke-width="3.26196"/><path d="M238.05987,212.00744c2.2173,0 4.2271,0.9003 5.6828,2.3561c1.4558,1.4558 2.3562,3.4655 2.3562,5.6828c0,2.2173 -0.9004,4.2271 -2.3562,5.6829c-1.4557,1.4558 -3.4655,2.3561 -5.6828,2.3561c-2.2173,0 -4.227,-0.9003 -5.6828,-2.3561c-1.4558,-1.4558 -2.3562,-3.4656 -2.3562,-5.6829c0,-2.2173 0.9004,-4.227 2.3562,-5.6828c1.4558,-1.4558 3.4655,-2.3561 5.6828,-2.3561z" fill="#dddfea" stroke-width="1.46164"/></g><path d="M187.58221,286.7671l114.18142,-104.7536" fill="none" stroke="#ff0000" stroke-width="10" stroke-linecap="round"/></g></g></svg>