<svg version="1.1" xmlns="http://www.w3.org/2000/svg" xmlns:xlink="http://www.w3.org/1999/xlink" width="35.05018" height="32.98653" viewBox="0,0,35.05018,32.98653"><g transform="translate(-488.48285,-154.72523)"><g data-paper-data="{&quot;isPaintingLayer&quot;:true}" fill-rule="nonzero" stroke="#010017" stroke-width="1" stroke-linecap="butt" stroke-linejoin="miter" stroke-miterlimit="10" stroke-dasharray="" stroke-dashoffset="0" style="mix-blend-mode: normal"><path d="M523.03303,171.21849c0,8.83283 -7.6224,15.99327 -17.02509,15.99327c-9.40269,0 -17.02509,-7.16043 -17.02509,-15.99327c0,-8.83283 7.6224,-15.99327 17.02509,-15.99327c9.40269,0 17.02509,7.16043 17.02509,15.99327z" fill="#00d48c"/><path d="M515.62239,177.01413c1.00305,1.03831 0.97447,2.69261 -0.06382,3.6964c-1.03831,1.00231 -2.69335,0.97373 -3.69639,-0.06457l-5.87134,-6.07915l-5.95965,5.99232c-1.01789,1.02346 -2.67257,1.02791 -3.69677,0.00965c-1.02309,-1.01789 -1.02792,-2.67257 -0.00966,-3.69677l6.03351,-6.0669l-5.94445,-6.15448c-1.00268,-1.03831 -0.97411,-2.69297 0.06457,-3.69639c1.03793,-1.00268 2.69298,-0.97374 3.69603,0.06457l5.87097,6.07878l5.96003,-5.99194c1.01826,-1.02346 2.67331,-1.02829 3.69677,-0.0104c1.02382,1.01826 1.02791,2.67332 0.01002,3.69714l-6.03424,6.06653z" fill="#000000"/></g></g></svg>